<svg width="32" height="32" viewBox="0 0 32 32" fill="none" xmlns="http://www.w3.org/2000/svg">
  <defs>
    <!-- 主渐变色 -->
    <linearGradient id="mainGradient" x1="0%" y1="0%" x2="100%" y2="100%">
      <stop offset="0%" style="stop-color:#FF6B9D;stop-opacity:1" />
      <stop offset="50%" style="stop-color:#A855F7;stop-opacity:1" />
      <stop offset="100%" style="stop-color:#3B82F6;stop-opacity:1" />
    </linearGradient>
    
    <!-- 心形渐变 -->
    <linearGradient id="heartGradient" x1="0%" y1="0%" x2="100%" y2="100%">
      <stop offset="0%" style="stop-color:#FF8FA3;stop-opacity:1" />
      <stop offset="100%" style="stop-color:#FF6B9D;stop-opacity:1" />
    </linearGradient>
    
    <!-- 阴影滤镜 -->
    <filter id="shadow" x="-20%" y="-20%" width="140%" height="140%">
      <feDropShadow dx="0" dy="1" stdDeviation="1.5" flood-color="rgba(0,0,0,0.1)"/>
    </filter>
  </defs>
  
  <!-- 背景圆形 -->
  <circle cx="16" cy="16" r="15" fill="url(#mainGradient)" filter="url(#shadow)"/>
  
  <!-- 笔记本图标 -->
  <rect x="9" y="10" width="10" height="12" rx="1" fill="white" opacity="0.9"/>
  <rect x="10" y="11" width="8" height="0.5" fill="url(#mainGradient)" opacity="0.6"/>
  <rect x="10" y="12.5" width="6" height="0.5" fill="url(#mainGradient)" opacity="0.4"/>
  <rect x="10" y="14" width="7" height="0.5" fill="url(#mainGradient)" opacity="0.4"/>
  <rect x="10" y="15.5" width="5" height="0.5" fill="url(#mainGradient)" opacity="0.4"/>
  
  <!-- 心形图标 -->
  <path d="M16 19c-0.75-0.75-2-2-2-3.25 0-0.75 0.5-1.25 1.25-1.25s1.25 0.5 1.25 1.25c0-0.75 0.5-1.25 1.25-1.25s1.25 0.5 1.25 1.25c0 1.25-1.25 2.5-2 3.25z" 
        fill="url(#heartGradient)" 
        opacity="0.8"/>
  
  <!-- 装饰性小点 -->
  <circle cx="21" cy="13" r="0.75" fill="white" opacity="0.6"/>
  <circle cx="22.5" cy="15" r="0.5" fill="white" opacity="0.4"/>
  <circle cx="11" cy="19" r="0.5" fill="white" opacity="0.5"/>
</svg>
