<svg width="64" height="64" viewBox="0 0 64 64" fill="none" xmlns="http://www.w3.org/2000/svg">
  <defs>
    <!-- 主渐变色 -->
    <linearGradient id="mainGradient" x1="0%" y1="0%" x2="100%" y2="100%">
      <stop offset="0%" style="stop-color:#FF6B9D;stop-opacity:1" />
      <stop offset="50%" style="stop-color:#A855F7;stop-opacity:1" />
      <stop offset="100%" style="stop-color:#3B82F6;stop-opacity:1" />
    </linearGradient>
    
    <!-- 心形渐变 -->
    <linearGradient id="heartGradient" x1="0%" y1="0%" x2="100%" y2="100%">
      <stop offset="0%" style="stop-color:#FF8FA3;stop-opacity:1" />
      <stop offset="100%" style="stop-color:#FF6B9D;stop-opacity:1" />
    </linearGradient>
    
    <!-- 阴影滤镜 -->
    <filter id="shadow" x="-20%" y="-20%" width="140%" height="140%">
      <feDropShadow dx="0" dy="2" stdDeviation="3" flood-color="rgba(0,0,0,0.1)"/>
    </filter>
  </defs>
  
  <!-- 背景圆形 -->
  <circle cx="32" cy="32" r="30" fill="url(#mainGradient)" filter="url(#shadow)"/>
  
  <!-- 笔记本图标 -->
  <rect x="18" y="20" width="20" height="24" rx="2" fill="white" opacity="0.9"/>
  <rect x="20" y="22" width="16" height="1" fill="url(#mainGradient)" opacity="0.6"/>
  <rect x="20" y="25" width="12" height="1" fill="url(#mainGradient)" opacity="0.4"/>
  <rect x="20" y="28" width="14" height="1" fill="url(#mainGradient)" opacity="0.4"/>
  <rect x="20" y="31" width="10" height="1" fill="url(#mainGradient)" opacity="0.4"/>
  
  <!-- 心形图标 -->
  <path d="M32 38c-1.5-1.5-4-4-4-6.5 0-1.5 1-2.5 2.5-2.5s2.5 1 2.5 2.5c0-1.5 1-2.5 2.5-2.5s2.5 1 2.5 2.5c0 2.5-2.5 5-4 6.5z" 
        fill="url(#heartGradient)" 
        opacity="0.8"/>
  
  <!-- 装饰性小点 -->
  <circle cx="42" cy="26" r="1.5" fill="white" opacity="0.6"/>
  <circle cx="45" cy="30" r="1" fill="white" opacity="0.4"/>
  <circle cx="22" cy="38" r="1" fill="white" opacity="0.5"/>
</svg>